<?xml version="1.0" encoding="UTF-8" standalone="no"?>
<!DOCTYPE svg PUBLIC "-//W3C//DTD SVG 1.1//EN"
 "http://www.w3.org/Graphics/SVG/1.1/DTD/svg11.dtd">
<!-- Generated by graphviz version 2.37.20140119.0545 (20140119.0545)
 -->
<!-- Pages: 1 -->
<svg width="780pt" height="164pt"
 viewBox="0.00 0.00 780.00 164.00" xmlns="http://www.w3.org/2000/svg" xmlns:xlink="http://www.w3.org/1999/xlink">
<g id="graph0" class="graph" transform="scale(1 1) rotate(0) translate(18 146)">
<polygon fill="white" stroke="none" points="-18,18 -18,-146 762,-146 762,18 -18,18"/>
<!-- net35client -->
<g id="node1" class="node"><title>net35client</title>
<ellipse fill="none" stroke="black" cx="382" cy="-18" rx="69.5877" ry="18"/>
<text text-anchor="middle" x="382" y="-14.3" font-family="Consolas" font-size="14.00">net35&#45;client</text>
</g>
<!-- net40client -->
<g id="node2" class="node"><title>net40client</title>
<ellipse fill="none" stroke="black" cx="568" cy="-56" rx="69.5877" ry="18"/>
<text text-anchor="middle" x="568" y="-52.3" font-family="Consolas" font-size="14.00">net40&#45;client</text>
</g>
<!-- net35client&#45;&gt;net40client -->
<g id="edge3" class="edge"><title>net35client&#45;&gt;net40client</title>
<path fill="none" stroke="black" stroke-dasharray="5,2" d="M437.211,-29.1957C457.893,-33.467 481.659,-38.3752 503.155,-42.8147"/>
<polygon fill="black" stroke="black" points="502.675,-46.2893 513.177,-44.8843 504.091,-39.434 502.675,-46.2893"/>
</g>
<!-- net45 -->
<g id="node7" class="node"><title>net45</title>
<ellipse fill="none" stroke="black" cx="709" cy="-83" rx="35.194" ry="18"/>
<text text-anchor="middle" x="709" y="-79.3" font-family="Consolas" font-size="14.00">net45</text>
</g>
<!-- net40client&#45;&gt;net45 -->
<g id="edge4" class="edge"><title>net40client&#45;&gt;net45</title>
<path fill="none" stroke="black" d="M624.336,-66.7487C638.076,-69.4176 652.587,-72.2363 665.596,-74.7633"/>
<polygon fill="black" stroke="black" points="665.18,-78.2478 675.664,-76.7189 666.515,-71.3763 665.18,-78.2478"/>
</g>
<!-- portablenet40 -->
<g id="node3" class="node"><title>portablenet40</title>
<ellipse fill="none" stroke="black" cx="186" cy="-91" rx="79.0865" ry="18"/>
<text text-anchor="middle" x="186" y="-87.3" font-family="Consolas" font-size="14.00">portable&#45;net40</text>
</g>
<!-- portablenet40&#45;&gt;net40client -->
<g id="edge5" class="edge"><title>portablenet40&#45;&gt;net40client</title>
<path fill="none" stroke="black" d="M259.818,-84.2931C326.54,-78.1476 424.894,-69.0888 492.225,-62.8871"/>
<polygon fill="black" stroke="black" points="492.704,-66.3579 502.341,-61.9554 492.062,-59.3874 492.704,-66.3579"/>
</g>
<!-- portablenet45 -->
<g id="node4" class="node"><title>portablenet45</title>
<ellipse fill="none" stroke="black" cx="382" cy="-110" rx="79.0865" ry="18"/>
<text text-anchor="middle" x="382" y="-106.3" font-family="Consolas" font-size="14.00">portable&#45;net45</text>
</g>
<!-- portablenet40&#45;&gt;portablenet45 -->
<g id="edge6" class="edge"><title>portablenet40&#45;&gt;portablenet45</title>
<path fill="none" stroke="black" d="M258.963,-98.0479C271.938,-99.3187 285.555,-100.652 298.795,-101.949"/>
<polygon fill="black" stroke="black" points="298.536,-105.44 308.83,-102.932 299.219,-98.4737 298.536,-105.44"/>
</g>
<!-- win -->
<g id="node8" class="node"><title>win</title>
<ellipse fill="none" stroke="black" cx="568" cy="-110" rx="27" ry="18"/>
<text text-anchor="middle" x="568" y="-106.3" font-family="Consolas" font-size="14.00">win</text>
</g>
<!-- portablenet45&#45;&gt;win -->
<g id="edge7" class="edge"><title>portablenet45&#45;&gt;win</title>
<path fill="none" stroke="black" d="M461.299,-110C485.344,-110 510.665,-110 530.495,-110"/>
<polygon fill="black" stroke="black" points="530.615,-113.5 540.615,-110 530.615,-106.5 530.615,-113.5"/>
</g>
<!-- net20 -->
<g id="node5" class="node"><title>net20</title>
<ellipse fill="none" stroke="black" cx="35" cy="-18" rx="35.194" ry="18"/>
<text text-anchor="middle" x="35" y="-14.3" font-family="Consolas" font-size="14.00">net20</text>
</g>
<!-- net30 -->
<g id="node6" class="node"><title>net30</title>
<ellipse fill="none" stroke="black" cx="186" cy="-18" rx="35.194" ry="18"/>
<text text-anchor="middle" x="186" y="-14.3" font-family="Consolas" font-size="14.00">net30</text>
</g>
<!-- net20&#45;&gt;net30 -->
<g id="edge1" class="edge"><title>net20&#45;&gt;net30</title>
<path fill="none" stroke="black" d="M70.1836,-18C91.12,-18 118.135,-18 140.701,-18"/>
<polygon fill="black" stroke="black" points="140.718,-21.5001 150.718,-18 140.718,-14.5001 140.718,-21.5001"/>
</g>
<!-- net30&#45;&gt;net35client -->
<g id="edge2" class="edge"><title>net30&#45;&gt;net35client</title>
<path fill="none" stroke="black" d="M221.237,-18C243.616,-18 273.806,-18 301.916,-18"/>
<polygon fill="black" stroke="black" points="302.16,-21.5001 312.16,-18 302.16,-14.5001 302.16,-21.5001"/>
</g>
<!-- win&#45;&gt;net45 -->
<g id="edge8" class="edge"><title>win&#45;&gt;net45</title>
<path fill="none" stroke="black" d="M594.172,-105.111C614.14,-101.232 642.486,-95.7258 665.895,-91.1786"/>
<polygon fill="black" stroke="black" points="666.771,-94.574 675.92,-89.2313 665.436,-87.7024 666.771,-94.574"/>
</g>
</g>
</svg>
